<svg xmlns="http://www.w3.org/2000/svg" xmlns:xlink="http://www.w3.org/1999/xlink" version="1.1"
	id="Layer_1" x="0px" y="0px" style="enable-background:new 0 0 512.006 512.006;"
	xml:space="preserve" viewBox="2.51 1.85 270.73 146.9">
	 <g fill="#FFFFFF"><path d="M71.92 59.91h5.34v-56h-5.34v-1h24.72c8 0 17.58 3.21 17.58 14.13 0 9-8.78 12.82-14 13.31v.08c7 0 16.26 4.52 16.26 15.12 0 8.87-6.32 15.36-17.57 15.36h-27zM96.56 30c4.77 0 7.64-2.88 7.64-12.9 0-10.43-3.37-13.22-7.8-13.22h-9.28V30zm.25 29.9c5.67 0 8.54-3.12 8.54-14.46 0-12.89-4.6-14.54-8-14.54H87.12v29zM121.55 43.73c0-10.11 6.49-18.4 18-18.4 11.17 0 18.07 8.29 18.07 18.15 0 10.11-6.49 18.4-18 18.4-11.09 0-18.07-8.29-18.07-18.15M147.42 51a90 90 0 0 0 0-14.87c-.41-4.6-1.48-9.94-7.88-9.94-6.82 0-7.31 5.34-7.72 10.1a73.89 73.89 0 0 0 0 14.87c.41 4.6 1.39 9.94 7.8 9.94 6.82 0 7.39-5.34 7.8-10.1M245.85 60.9v-.83h4.84V33.54c0-6.16-4-7.06-6.4-7.06A7.41 7.41 0 0 0 237 33.3v26.77h4.84v.83h-18.17v-.83h4.85V33.54c0-6.16-4-7.06-6.41-7.06-4.36 0-7.31 4-7.31 6.24v27.35h4.84v.83h-18.15v-.83h4.85V27.14h-4.85v-.82h13.15v3.61h.16c1.48-2.38 4.27-4.6 9.28-4.6 4.36 0 10.11 2.13 11.91 7.47h.09c.9-4.59 4.18-7.47 10.18-7.47 5.42 0 12.9 3.12 12.9 12.81v21.93H264v.83zM264.67 22l-.41-.9c4.6-1.64 7-5.34 7-7.89a2.65 2.65 0 0 0-1.48-2.62l-5.92-2.22a4.26 4.26 0 0 1-.41-2c0-2.06 1.23-4.52 4.19-4.52 3.53 0 5.59 3.61 5.59 7.88A12.5 12.5 0 0 1 264.67 22M4.76 141.33l-.59 4.82H2.51l1.56-12.83h3.54a5.52 5.52 0 0 1 1.77.25 3.44 3.44 0 0 1 1.24.68 2.87 2.87 0 0 1 .73 1.08 3.82 3.82 0 0 1 .24 1.39 5 5 0 0 1-.33 1.86 4 4 0 0 1-1 1.45 4.38 4.38 0 0 1-1.56 1 6 6 0 0 1-2.12.34zm.82-6.69L4.92 140h1.86a3.74 3.74 0 0 0 1.35-.23 2.9 2.9 0 0 0 1-.65 2.87 2.87 0 0 0 .6-1 3.6 3.6 0 0 0 .21-1.25 2.45 2.45 0 0 0-.16-.93 1.87 1.87 0 0 0-.45-.71 2 2 0 0 0-.77-.44 3.23 3.23 0 0 0-1.08-.16zM27.88 138.83a8.62 8.62 0 0 1-.23 2.06 7.92 7.92 0 0 1-.65 1.81 7.17 7.17 0 0 1-1 1.49 6.6 6.6 0 0 1-1.36 1.12A5.93 5.93 0 0 1 23 146a6.47 6.47 0 0 1-1.83.25 5.18 5.18 0 0 1-2.12-.42 4.61 4.61 0 0 1-1.61-1.17 5 5 0 0 1-1-1.77 6.82 6.82 0 0 1-.35-2.26 8.61 8.61 0 0 1 .51-3 7.28 7.28 0 0 1 1.4-2.35 6.3 6.3 0 0 1 4.8-2.1 5 5 0 0 1 2.12.43 4.61 4.61 0 0 1 1.61 1.17 5 5 0 0 1 1 1.79 6.82 6.82 0 0 1 .35 2.26m-1.71 0a6 6 0 0 0-.25-1.76 4 4 0 0 0-.72-1.35 3.06 3.06 0 0 0-1.12-.86 3.66 3.66 0 0 0-1.5-.31 4.45 4.45 0 0 0-1.94.43 4.34 4.34 0 0 0-1.52 1.21 5.77 5.77 0 0 0-1 1.91 8.37 8.37 0 0 0-.35 2.49 5.71 5.71 0 0 0 .25 1.76 3.73 3.73 0 0 0 .71 1.34 3.06 3.06 0 0 0 1.12.86 3.57 3.57 0 0 0 1.49.3 4.5 4.5 0 0 0 2-.42 4.59 4.59 0 0 0 1.53-1.21 5.6 5.6 0 0 0 1-1.9 8 8 0 0 0 .36-2.49m-.66-6.55h-1.44a.51.51 0 0 1-.18-.09l-1-1-1.27 1a.61.61 0 0 1-.2.09h-1.42l2.21-1.87h1.51zM34.56 144.73h5.07l-.17 1.42h-6.74l1.58-12.83h1.67l-1.41 11.41zM53.48 134.69h-5.61l-.54 4.32h4.55l-.18 1.32h-4.53l-.55 4.46h5.63l-.17 1.36h-7.31l1.58-12.83h7.3l-.17 1.37zM70.14 144.85a4.65 4.65 0 0 0 1-.1 5.66 5.66 0 0 0 .81-.24 3.36 3.36 0 0 0 .6-.32l.42-.32a3.43 3.43 0 0 0 .31-.24.45.45 0 0 1 .23-.1.25.25 0 0 1 .13 0 .36.36 0 0 1 .09.08l.58.73a6.27 6.27 0 0 1-1.94 1.42 6.14 6.14 0 0 1-2.55.5 5.05 5.05 0 0 1-2.06-.41 4.42 4.42 0 0 1-1.54-1.15 5.26 5.26 0 0 1-1-1.76 7.28 7.28 0 0 1-.33-2.25 8.62 8.62 0 0 1 .52-3.06 7.35 7.35 0 0 1 1.42-2.38 6.42 6.42 0 0 1 2.17-1.52 6.27 6.27 0 0 1 2.64-.55 5.83 5.83 0 0 1 1.23.12 3.87 3.87 0 0 1 1 .34 4.36 4.36 0 0 1 .83.53 5.7 5.7 0 0 1 .69.7l-.57.7a.75.75 0 0 1-.16.15.38.38 0 0 1-.22.06.48.48 0 0 1-.34-.18 3.8 3.8 0 0 0-.49-.39 3.48 3.48 0 0 0-2.06-.57 4.73 4.73 0 0 0-1.95.41 4.54 4.54 0 0 0-1.56 1.2 5.64 5.64 0 0 0-1 1.87 7.36 7.36 0 0 0-.38 2.47 5.8 5.8 0 0 0 .25 1.78 4.1 4.1 0 0 0 .73 1.34 3.08 3.08 0 0 0 1.09.84 3.23 3.23 0 0 0 1.4.3M89.18 146.15h-1.69l.72-5.86h-6.26l-.71 5.86h-1.69l1.58-12.83h1.68l-.7 5.76h6.25l.71-5.76h1.68l-1.57 12.83zM107.44 138.83a9.16 9.16 0 0 1-.23 2.06 7.77 7.77 0 0 1-.66 1.81 6.48 6.48 0 0 1-1 1.49 6.29 6.29 0 0 1-1.35 1.12 6.21 6.21 0 0 1-1.62.72 6.47 6.47 0 0 1-1.83.25 5.14 5.14 0 0 1-2.12-.42 4.61 4.61 0 0 1-1.63-1.17 5 5 0 0 1-1-1.77 6.82 6.82 0 0 1-.36-2.26 8.61 8.61 0 0 1 .51-3 7.28 7.28 0 0 1 1.41-2.37 6.34 6.34 0 0 1 4.8-2.1 5 5 0 0 1 2.13.43 4.71 4.71 0 0 1 1.61 1.17 5.33 5.33 0 0 1 1 1.79 7.09 7.09 0 0 1 .35 2.26m-1.72 0a5.67 5.67 0 0 0-.25-1.76 3.78 3.78 0 0 0-.71-1.35 3 3 0 0 0-1.13-.86 3.57 3.57 0 0 0-1.49-.3 4.52 4.52 0 0 0-2 .42 4.43 4.43 0 0 0-1.52 1.21 6 6 0 0 0-1 1.91 8 8 0 0 0-.36 2.49 6 6 0 0 0 .25 1.76 4.07 4.07 0 0 0 .71 1.34 3.18 3.18 0 0 0 1.13.86 3.57 3.57 0 0 0 1.49.3 4.5 4.5 0 0 0 2-.42 4.34 4.34 0 0 0 1.52-1.21 5.61 5.61 0 0 0 1-1.9 8.06 8.06 0 0 0 .35-2.49M114.75 140.77l-.66 5.38h-1.66l1.57-12.83h3.38a6.56 6.56 0 0 1 1.76.22 3.51 3.51 0 0 1 1.24.61 2.54 2.54 0 0 1 .72 1 3.22 3.22 0 0 1 .24 1.26 4.5 4.5 0 0 1-.23 1.45 4.08 4.08 0 0 1-.67 1.21 4.4 4.4 0 0 1-1.06.9 4.7 4.7 0 0 1-1.4.55 1.58 1.58 0 0 1 .48.54l2.76 5.12h-1.48a.65.65 0 0 1-.63-.36l-2.42-4.62a.68.68 0 0 0-.26-.31 1 1 0 0 0-.49-.09zm.76-6.13l-.61 4.91h1.64a3.89 3.89 0 0 0 1.34-.21 2.77 2.77 0 0 0 1-.61 2.37 2.37 0 0 0 .6-.92 3.13 3.13 0 0 0 .2-1.17 1.84 1.84 0 0 0-.61-1.49 2.82 2.82 0 0 0-1.84-.51zM135.19 134.69h-5.61L129 139h4.55l-.17 1.31h-4.54l-.54 4.46h5.7l-.17 1.36h-7.32l1.59-12.83h7.29zm0-4.48l-2.58 1.88a2.09 2.09 0 0 1-.27.16.6.6 0 0 1-.29.06h-1.29l2-1.82.16-.13a.65.65 0 0 1 .16-.09l.18-.05h2zM145 144.94a7.85 7.85 0 0 0 .87-.05 4.15 4.15 0 0 0 .75-.15 3.64 3.64 0 0 0 .68-.24 5.51 5.51 0 0 0 .65-.31l.35-2.9h-1.78a.36.36 0 0 1-.24-.08.32.32 0 0 1-.08-.21.82.82 0 0 0 0-.14.93.93 0 0 1 0-.14l.08-.71H150l-.6 4.89a8.11 8.11 0 0 1-1 .61 6.86 6.86 0 0 1-1.09.43 6.48 6.48 0 0 1-1.21.26 9.75 9.75 0 0 1-1.37.09 5.11 5.11 0 0 1-2.1-.42 4.59 4.59 0 0 1-1.62-1.16 5.1 5.1 0 0 1-1-1.79 6.84 6.84 0 0 1-.36-2.27 8.68 8.68 0 0 1 .51-3 7.25 7.25 0 0 1 1.42-2.36 6.35 6.35 0 0 1 2.16-1.53 6.61 6.61 0 0 1 2.72-.55 6.34 6.34 0 0 1 1.36.13 5.67 5.67 0 0 1 1.1.34 5.23 5.23 0 0 1 .89.53 7.63 7.63 0 0 1 .73.66l-.54.7a.76.76 0 0 1-.18.18.44.44 0 0 1-.22.07.65.65 0 0 1-.3-.09 4.05 4.05 0 0 1-.43-.31 3.42 3.42 0 0 0-.58-.34 4 4 0 0 0-.81-.29 4.63 4.63 0 0 0-1.14-.12 4.81 4.81 0 0 0-2 .42 4.48 4.48 0 0 0-1.57 1.2 5.67 5.67 0 0 0-1 1.88 7.83 7.83 0 0 0-.36 2.45 5.76 5.76 0 0 0 .26 1.82 3.74 3.74 0 0 0 .75 1.36 3.12 3.12 0 0 0 1.16.87 3.72 3.72 0 0 0 1.52.3M157.74 140.77l-.66 5.38h-1.67l1.59-12.83h3.37a6.58 6.58 0 0 1 1.77.22 3.38 3.38 0 0 1 1.23.61 2.47 2.47 0 0 1 .73 1 3.22 3.22 0 0 1 .24 1.26 4.24 4.24 0 0 1-.24 1.45 3.87 3.87 0 0 1-.67 1.21 4.17 4.17 0 0 1-1 .9 4.81 4.81 0 0 1-1.4.55 1.58 1.58 0 0 1 .48.54l2.76 5.12h-1.49a.64.64 0 0 1-.62-.36l-2.42-4.62a.7.7 0 0 0-.27-.31 1 1 0 0 0-.48-.09zm.76-6.13l-.61 4.91h1.64a3.93 3.93 0 0 0 1.34-.21 2.86 2.86 0 0 0 1-.61 2.37 2.37 0 0 0 .6-.92 3.34 3.34 0 0 0 .2-1.17 1.84 1.84 0 0 0-.61-1.49 2.82 2.82 0 0 0-1.84-.51zM179.16 146.15h-1.29a.5.5 0 0 1-.34-.11.65.65 0 0 1-.18-.3l-.69-3.13h-5.23l-1.43 3.13a.81.81 0 0 1-.24.29.63.63 0 0 1-.37.12H168l6.29-12.83H176zm-7.16-4.76h4.4l-1.18-5.3c0-.16-.08-.33-.12-.53s-.08-.41-.11-.63c-.08.22-.17.44-.25.64l-.25.53zM186.52 141.33l-.59 4.82h-1.66l1.56-12.83h3.54a5.52 5.52 0 0 1 1.77.25 3.35 3.35 0 0 1 1.24.68 2.76 2.76 0 0 1 .73 1.08 3.82 3.82 0 0 1 .24 1.39 5 5 0 0 1-.33 1.86 4 4 0 0 1-1 1.45 4.38 4.38 0 0 1-1.56 1 6 6 0 0 1-2.11.34zm.83-6.69l-.66 5.37h1.86a3.73 3.73 0 0 0 1.34-.23 2.8 2.8 0 0 0 1-.65 2.6 2.6 0 0 0 .6-1 3.6 3.6 0 0 0 .21-1.25 2.67 2.67 0 0 0-.15-.93 1.9 1.9 0 0 0-.46-.71 2 2 0 0 0-.77-.44 3.23 3.23 0 0 0-1.08-.16zM207.42 146.15h-1.69l.72-5.86h-6.25l-.72 5.86h-1.69l1.59-12.83h1.68l-.71 5.76h6.26l.7-5.76H209l-1.58 12.83zM215.79 146.15h-1.68l1.57-12.83h1.68l-1.57 12.83zM234.32 138.83a9.07 9.07 0 0 1-.22 2 7.93 7.93 0 0 1-.65 1.79 7 7 0 0 1-1 1.49 6.23 6.23 0 0 1-1.33 1.13l2.59 3.51h-1.35a1.5 1.5 0 0 1-.54-.08.86.86 0 0 1-.4-.31l-1.78-2.36a7.08 7.08 0 0 1-1 .23 7.2 7.2 0 0 1-1.05.08 5.18 5.18 0 0 1-2.12-.42 4.61 4.61 0 0 1-1.61-1.17 5 5 0 0 1-1-1.77 6.82 6.82 0 0 1-.35-2.26 8.84 8.84 0 0 1 .5-3 7.3 7.3 0 0 1 1.42-2.37 6.3 6.3 0 0 1 4.79-2.1 5 5 0 0 1 2.13.43 4.61 4.61 0 0 1 1.61 1.17 5.17 5.17 0 0 1 1 1.79 6.82 6.82 0 0 1 .35 2.26m-1.71 0a6 6 0 0 0-.25-1.76 4 4 0 0 0-.72-1.35 3.06 3.06 0 0 0-1.12-.86 3.65 3.65 0 0 0-1.5-.3 4.45 4.45 0 0 0-1.94.42 4.34 4.34 0 0 0-1.52 1.21 5.77 5.77 0 0 0-1 1.91 8.37 8.37 0 0 0-.35 2.49 5.71 5.71 0 0 0 .25 1.76 3.73 3.73 0 0 0 .71 1.34 3.06 3.06 0 0 0 1.12.86 3.57 3.57 0 0 0 1.49.3 4.36 4.36 0 0 0 3.49-1.63 5.6 5.6 0 0 0 1-1.9 8 8 0 0 0 .36-2.49M243.92 144.83a3 3 0 0 0 1.32-.28 3.29 3.29 0 0 0 1-.76 4.12 4.12 0 0 0 .75-1.17 5.72 5.72 0 0 0 .39-1.49l1-7.81h1.67l-.95 7.81a6.56 6.56 0 0 1-.58 2.05 5.61 5.61 0 0 1-1.14 1.64 5.22 5.22 0 0 1-1.62 1.08 5 5 0 0 1-2 .4 4.6 4.6 0 0 1-1.76-.3 3.83 3.83 0 0 1-1.31-.9 4.12 4.12 0 0 1-.81-1.38 5.38 5.38 0 0 1-.27-1.74 6 6 0 0 1 0-.83l1-7.81h1.67l-.95 7.81V141.83a4 4 0 0 0 .18 1.22 2.6 2.6 0 0 0 .51 1 2.24 2.24 0 0 0 .83.62 2.73 2.73 0 0 0 1.14.22M263.45 134.69h-5.61l-.53 4.32h4.54l-.17 1.32h-4.54l-.54 4.46h5.63l-.17 1.36h-7.32l1.59-12.83h7.29l-.17 1.37zM3.09 96.6h1l8.63 15.62c1.07 2 2.88 2.71 7.64 2.71 8.06 0 12.75-3.53 12.75-10.11 0-16.36-28.78-13.56-28.78-32.55C4.32 64 10.24 55.83 21 55.83a45.82 45.82 0 0 1 14.14 2.54l1.48 13.4h-1l-8.3-12.33c-1.4-2.14-3-2.71-6-2.71-5.34 0-9.86 2.47-9.86 9.12 0 16.77 29.34 13.57 29.34 33 0 9.21-7.72 17-20.47 17a53.41 53.41 0 0 1-15.43-2.56zM62.94 111.4a6 6 0 0 1-6.09 4.44c-6.57 0-9.94-4-9.94-9.21v-25.4h-4.2v-1h4.2v-8.8L54.55 65h.82v15.24h7.24v1h-7.24v28.36c0 3.29.66 4.93 2.88 4.93 1.89 0 3.21-1.4 3.86-3.45zM66.06 114.85V114h4.85V81h-4.85v-.82h13.15v7.15h.17c1.56-4.6 4.93-8.14 9.45-8.14a10.49 10.49 0 0 1 4.93 1.32l1 12.08-1 .09-6.16-10.06c-.58-1-1.07-1.39-1.65-1.39-2.71 0-6.57 5.83-6.57 10.6V114h6.49v.82zM123.27 114.85v-3.62h-.16c-1.48 2.39-4.36 4.61-9.62 4.61-4.85 0-12.57-3.13-12.57-12.83v-22h-4.86v-.82h13.32v27.37c0 6.17 4 7.08 6.09 7.08 4.68 0 7.64-3.87 7.64-6.25V81.06h-4.85v-.82h13.32V114h4.85v.82zM168.08 108.77c-2.14 4.76-7.07 7.07-12.74 7.07-11.84 0-17.43-8.06-17.43-18.17 0-8.63 4.19-18.42 17.26-18.42a38.92 38.92 0 0 1 11.26 2.06L167.59 92h-.91l-6.82-9.87c-.86-1.31-1.73-2.13-4.61-2.13-5.42 0-6.49 3.7-7.07 9.62a88.65 88.65 0 0 0-.08 15.46c.41 4.6 2.55 9.7 8.22 9.7 4.77 0 9.05-2.39 10.77-6.5zM190 111.4a6 6 0 0 1-6.09 4.44c-6.57 0-9.94-4-9.94-9.21v-25.4h-4.2v-1h4.2v-8.8l7.59-6.43h.82v15.24h7.24v1h-7.24v28.36c0 3.29.66 4.93 2.88 4.93 1.89 0 3.21-1.4 3.86-3.45zM219.7 114.85v-3.62h-.16c-1.48 2.39-4.36 4.61-9.62 4.61-4.85 0-12.58-3.13-12.58-12.83v-22h-4.85v-.82h13.32v27.37c0 6.17 4 7.08 6.08 7.08 4.69 0 7.65-3.87 7.65-6.25V81.06h-4.85v-.82H228V114h4.85v.82zM235.08 114.85V114h4.85V81h-4.85v-.82h13.15v7.15h.16c1.56-4.6 4.94-8.14 9.46-8.14a10.52 10.52 0 0 1 4.93 1.32l1 12.08-1 .09-6.17-10.12c-.57-1-1.07-1.39-1.64-1.39-2.71 0-6.58 5.83-6.58 10.6V114h6.5v.82z"/><path fill="#FEEC38" d="M171.79 36.71a75.39 75.39 0 0 1 0-14.87c.29-3.35.66-7.44 3.2-9.3V11.4c-8.66 1.89-13.47 9.22-13.47 17.91 0 8.41 5.09 15.66 13.47 17.62v-1.32c-2.33-1.9-2.92-5.78-3.2-8.9M197.58 29.07c0-8.42-5-15.68-13.47-17.63v1.26c2.37 1.9 3 5.84 3.28 9a87.9 87.9 0 0 1 0 14.87c-.29 3.36-.7 7.41-3.28 9.27V47c8.66-1.89 13.47-9.22 13.47-17.91"/></g>
<g>
</g>
<g>
</g>
<g>
</g>
<g>
</g>
<g>
</g>
<g>
</g>
<g>
</g>
<g>
</g>
<g>
</g>
<g>
</g>
<g>
</g>
<g>
</g>
<g>
</g>
<g>
</g>
<g>
</g>
</svg>