<svg xmlns="http://www.w3.org/2000/svg" xmlns:xlink="http://www.w3.org/1999/xlink" version="1.1" id="Layer_1" x="0px" y="0px" style="enable-background:new 0 0 255 60;" xml:space="preserve" viewBox="0.2 1.1 209.8 58.3">
<style type="text/css">
	.st0{fill:none;}
	.st1{enable-background:new    ;}
	.st2{fill:#FFFFFF;}
	.st3{fill:#FF0505;}
</style>
<rect x="0.3" y="48.2" class="st0" width="211.7" height="20.1"/>
<g class="st1">
	<path class="st2" d="M5.6,54.2h0.4V54c0-1.5-0.8-2-1.9-2C2.9,52,2,52.8,2,52.8L1.5,52c0,0,1-0.9,2.8-0.9c1.9,0,2.9,1,2.9,3v5h-1   v-0.8c0-0.4,0-0.6,0-0.6h0c0,0-0.6,1.7-2.6,1.7c-1.3,0-2.6-0.8-2.6-2.3C0.9,54.3,4.3,54.2,5.6,54.2z M3.7,58.3   c1.5,0,2.4-1.5,2.4-2.9v-0.3H5.6c-1.2,0-3.6,0-3.6,1.8C2,57.6,2.6,58.3,3.7,58.3z"/>
	<path class="st2" d="M8.4,48.2h0.9v1.3H8.4V48.2z M9.5,51.3h1V59h-1V51.3z M10.8,48.2h1v1.3h-1V48.2z"/>
	<path class="st2" d="M16.6,51.1c1.9,0,2.8,1.1,2.8,1.1L18.9,53c0,0-0.9-0.9-2.3-0.9c-1.7,0-3,1.3-3,3.1c0,1.8,1.3,3.1,3,3.1   c1.6,0,2.5-1.1,2.5-1.1l0.5,0.8c0,0-1,1.2-3,1.2c-2.3,0-4.1-1.6-4.1-4C12.6,52.8,14.4,51.1,16.6,51.1z"/>
	<path class="st2" d="M21.6,48.2h1v4.2c0,0.4,0,0.6,0,0.6h0c0.3-0.7,1.3-1.9,3.1-1.9c1.9,0,2.6,1.1,2.6,3V59h-1v-4.6   c0-1.2-0.2-2.3-1.7-2.3c-1.3,0-2.5,0.9-2.8,2.2c-0.1,0.3-0.1,0.7-0.1,1V59h-1V48.2z"/>
	<path class="st2" d="M34.8,54.2h0.4V54c0-1.5-0.8-2-1.9-2c-1.3,0-2.2,0.7-2.2,0.7L30.6,52c0,0,1-0.9,2.8-0.9c1.9,0,2.9,1,2.9,3v5   h-1v-0.8c0-0.4,0-0.6,0-0.6h0c0,0-0.6,1.7-2.6,1.7c-1.3,0-2.6-0.8-2.6-2.3C30.1,54.3,33.5,54.2,34.8,54.2z M32.9,58.3   c1.5,0,2.4-1.5,2.4-2.9v-0.3h-0.4c-1.2,0-3.6,0-3.6,1.8C31.2,57.6,31.7,58.3,32.9,58.3z"/>
	<path class="st2" d="M42.9,51.3h1v1.2c0,0.3,0,0.6,0,0.6h0c0.4-1,1.6-2,2.8-2c1.4,0,2.2,0.7,2.4,1.9h0c0.4-1,1.5-1.9,2.8-1.9   c1.9,0,2.6,1.1,2.6,3V59h-1v-4.7c0-1.3-0.3-2.3-1.7-2.3c-1.2,0-2.2,1-2.4,2.2c-0.1,0.3-0.1,0.7-0.1,1.1V59h-1v-4.7   c0-1.2-0.2-2.3-1.6-2.3c-1.3,0-2.2,1.1-2.5,2.3c-0.1,0.3-0.1,0.7-0.1,1V59h-1V51.3z"/>
	<path class="st2" d="M57.2,48h1.1l-0.9,2.6h-0.8L57.2,48z"/>
	<path class="st2" d="M60.2,48.2h1v3.8c0,0.4,0,0.6,0,0.6h0c0,0,0.6-1.5,2.6-1.5c2.1,0,3.4,1.7,3.4,4.1c0,2.4-1.5,4-3.5,4   c-1.8,0-2.5-1.5-2.5-1.5h0c0,0,0,0.3,0,0.6V59h-1V48.2z M63.7,58.3c1.4,0,2.5-1.2,2.5-3.1c0-1.9-1-3.1-2.4-3.1   c-1.3,0-2.5,0.9-2.5,3.1C61.2,56.7,62,58.3,63.7,58.3z"/>
	<path class="st2" d="M73.4,54.2h0.4V54c0-1.5-0.8-2-1.9-2c-1.3,0-2.2,0.7-2.2,0.7L69.2,52c0,0,1-0.9,2.8-0.9c1.9,0,2.9,1,2.9,3v5   h-1v-0.8c0-0.4,0-0.6,0-0.6h0c0,0-0.6,1.7-2.6,1.7c-1.3,0-2.6-0.8-2.6-2.3C68.6,54.3,72,54.2,73.4,54.2z M71.4,58.3   c1.5,0,2.4-1.5,2.4-2.9v-0.3h-0.4c-1.2,0-3.6,0-3.6,1.8C69.7,57.6,70.3,58.3,71.4,58.3z"/>
	<path class="st2" d="M77.3,51.3h1v1.4c0,0.3,0,0.6,0,0.6h0c0.4-1.2,1.2-2.1,2.4-2.1c0.2,0,0.4,0,0.4,0v1c0,0-0.2,0-0.4,0   c-1.1,0-1.9,0.9-2.2,2c-0.2,0.5-0.2,1-0.2,1.5V59h-1V51.3z"/>
	<path class="st2" d="M85.9,51.1c2.1,0,3.2,1.6,3.2,3.6c0,0.2,0,0.5,0,0.5h-5.9c0,2,1.4,3.1,3,3.1c1.4,0,2.4-0.9,2.4-0.9l0.5,0.8   c0,0-1.1,1.1-2.9,1.1c-2.3,0-4-1.7-4-4C82.1,52.6,83.8,51.1,85.9,51.1z M88.1,54.3c-0.1-1.6-1-2.4-2.2-2.4c-1.3,0-2.4,0.8-2.7,2.4   H88.1z"/>
	<path class="st2" d="M91.2,48.2h1v6h1.2l2.3-3H97l-2.7,3.4v0l3,4.3h-1.2l-2.6-3.9h-1.2V59h-1V48.2z"/>
	<path class="st2" d="M106.3,51.1c2.1,0,3.2,1.6,3.2,3.6c0,0.2,0,0.5,0,0.5h-5.9c0,2,1.4,3.1,3,3.1c1.4,0,2.4-0.9,2.4-0.9l0.5,0.8   c0,0-1.1,1.1-2.9,1.1c-2.3,0-4-1.7-4-4C102.5,52.6,104.2,51.1,106.3,51.1z M108.5,54.3c-0.1-1.6-1-2.4-2.2-2.4   c-1.3,0-2.4,0.8-2.7,2.4H108.5z"/>
	<path class="st2" d="M111.9,52.2h-1v-0.9h1v-2.2h1v2.2h1.9v0.9h-1.9v3.8c0,1.8,1.2,2,1.7,2c0.2,0,0.4,0,0.4,0V59c0,0-0.2,0-0.4,0   c-0.9,0-2.7-0.3-2.7-2.9V52.2z"/>
	<path class="st2" d="M120.9,48.2h1v4.2c0,0.4,0,0.6,0,0.6h0c0.3-0.7,1.3-1.9,3.1-1.9c1.9,0,2.6,1.1,2.6,3V59h-1v-4.6   c0-1.2-0.2-2.3-1.7-2.3c-1.3,0-2.5,0.9-2.8,2.2c-0.1,0.3-0.1,0.7-0.1,1V59h-1V48.2z"/>
	<path class="st2" d="M134.1,54.2h0.4V54c0-1.5-0.8-2-1.9-2c-1.3,0-2.2,0.7-2.2,0.7l-0.5-0.8c0,0,1-0.9,2.8-0.9c1.9,0,2.9,1,2.9,3v5   h-1v-0.8c0-0.4,0-0.6,0-0.6h0c0,0-0.6,1.7-2.6,1.7c-1.3,0-2.6-0.8-2.6-2.3C129.4,54.3,132.8,54.2,134.1,54.2z M132.2,58.3   c1.5,0,2.4-1.5,2.4-2.9v-0.3h-0.4c-1.2,0-3.6,0-3.6,1.8C130.4,57.6,131,58.3,132.2,58.3z"/>
	<path class="st2" d="M142.9,52.1h-3.5V59h-1v-6.9h-1v-0.9h1V51c0-2.6,1.8-2.9,2.7-2.9c0.3,0,0.5,0,0.5,0v0.9c0,0-0.2,0-0.4,0   c-0.6,0-1.7,0.2-1.7,1.9v0.3h4.6V59h-1V52.1z M142.9,48.2h1.1v1.3h-1.1V48.2z"/>
	<path class="st2" d="M145.8,58.3l4.3-5.4c0.3-0.4,0.6-0.7,0.6-0.7v0c0,0-0.3,0-0.8,0h-4v-0.9h6.2V52l-4.3,5.4   c-0.3,0.4-0.6,0.7-0.6,0.7v0c0,0,0.3,0,0.8,0h4.3V59h-6.5V58.3z"/>
	<path class="st2" d="M161.4,51.1c1.9,0,2.5,1.5,2.5,1.5h0c0,0,0-0.3,0-0.6v-3.8h1V59h-1v-0.8c0-0.3,0-0.6,0-0.6h0   c0,0-0.6,1.6-2.7,1.6c-2.1,0-3.4-1.7-3.4-4.1C157.9,52.7,159.4,51.1,161.4,51.1z M161.5,58.3c1.3,0,2.5-0.9,2.5-3.1   c0-1.6-0.8-3.1-2.5-3.1c-1.4,0-2.5,1.2-2.5,3.1C159,57,160,58.3,161.5,58.3z"/>
	<path class="st2" d="M167.5,48.2h1v4.2c0,0.4,0,0.6,0,0.6h0c0.3-0.7,1.3-1.9,3.1-1.9c1.9,0,2.6,1.1,2.6,3V59h-1v-4.6   c0-1.2-0.2-2.3-1.7-2.3c-1.3,0-2.5,0.9-2.8,2.2c-0.1,0.3-0.1,0.7-0.1,1V59h-1V48.2z"/>
	<path class="st2" d="M180.8,54.2h0.4V54c0-1.5-0.8-2-1.9-2c-1.3,0-2.2,0.7-2.2,0.7l-0.5-0.8c0,0,1-0.9,2.8-0.9c1.9,0,2.9,1,2.9,3v5   h-1v-0.8c0-0.4,0-0.6,0-0.6h0c0,0-0.6,1.7-2.6,1.7c-1.3,0-2.6-0.8-2.6-2.3C176,54.3,179.4,54.2,180.8,54.2z M178.8,58.3   c1.5,0,2.4-1.5,2.4-2.9v-0.3h-0.4c-1.2,0-3.6,0-3.6,1.8C177.1,57.6,177.7,58.3,178.8,58.3z"/>
	<path class="st2" d="M188.2,51.1c2.3,0,4.1,1.7,4.1,4c0,2.3-1.8,4.1-4.1,4.1c-2.3,0-4.1-1.8-4.1-4.1   C184.1,52.8,185.9,51.1,188.2,51.1z M188.2,58.3c1.7,0,3-1.4,3-3.2c0-1.8-1.4-3.1-3-3.1s-3,1.3-3,3.1   C185.2,56.9,186.5,58.3,188.2,58.3z"/>
	<path class="st2" d="M194.1,51.3h1v4.6c0,1.2,0.2,2.3,1.7,2.3c1.8,0,2.9-1.6,2.9-3.2v-3.7h1V59h-1v-1.2c0-0.3,0-0.6,0-0.6h0   c-0.3,0.8-1.3,2-3,2c-1.8,0-2.6-1-2.6-3V51.3z"/>
</g>
<circle class="st3" cx="204.3" cy="24.1" r="5.7"/>
<circle class="st3" cx="204.3" cy="38.8" r="5.7"/>
<g>
	<rect x="-1" y="9" class="st0" width="169" height="39"/>
	<g class="st1">
		<path class="st3" d="M14,18.4c6.7,0,9.8,3.7,9.8,3.7l-3.5,5.6c0,0-2.4-2.4-5.8-2.4c-3.9,0-5.9,3-5.9,5.9c0,2.9,2,6.1,6.2,6.1    c3.5,0,6.8-3,6.8-3l3,5.8c0,0-3.7,4.1-10.6,4.1c-8.8,0-13.8-6.1-13.8-13C0.2,24.7,5.1,18.4,14,18.4z"/>
		<path class="st3" d="M28.5,9.4h8.3v10.8c0,1.2-0.1,2.1-0.1,2.1h0.1c1.4-2.4,4.3-3.9,7.5-3.9c5,0,8.9,2.3,8.9,9.3v16h-8.3V29.2    c0-2.3-0.9-3.3-2.7-3.3c-2.5,0-4.2,1.5-4.9,3.6c-0.3,1-0.4,2-0.4,3.2v10.9h-8.3V9.4z"/>
		<path class="st3" d="M71.5,28.3h0.3v-0.4c0-2.1-1.6-2.7-3.6-2.7c-3.1,0-6.7,2.4-6.7,2.4l-2.9-5.9c0,0,4.3-3.2,10.4-3.2    c7,0,11.1,3.8,11.1,10.1v15.2h-7.6v-1.5c0-0.8,0.1-1.5,0.1-1.5h-0.1c0,0-1.8,3.6-7,3.6c-4.6,0-8.4-3.1-8.4-8    C57.1,29.1,67.7,28.3,71.5,28.3z M67.9,38c2.2,0,4.1-2.4,4.1-4.4v-0.5h-0.8c-2.6,0-5.7,0.8-5.7,2.8C65.5,37.1,66.2,38,67.9,38z"/>
		<path class="st3" d="M87.1,25.9H84v-6.5h3.4v-7.1h8.1v7.1h5.2v6.5h-5.2v7.6c0,2.8,2.8,3.2,4.4,3.2c0.7,0,1.1,0,1.1,0v7.2    c0,0-0.9,0.1-2.3,0.1c-3.9,0-11.6-1.1-11.6-9.4V25.9z"/>
		<path class="st3" d="M105.8,9.4h8.3v10.8c0,1.2-0.1,2.1-0.1,2.1h0.1c1.4-2.4,4.3-3.9,7.5-3.9c5,0,8.9,2.3,8.9,9.3v16h-8.3V29.2    c0-2.3-0.9-3.3-2.7-3.3c-2.5,0-4.2,1.5-4.9,3.6c-0.3,1-0.4,2-0.4,3.2v10.9h-8.3V9.4z"/>
		<path class="st3" d="M148.8,28.3h0.3v-0.4c0-2.1-1.6-2.7-3.6-2.7c-3.1,0-6.7,2.4-6.7,2.4l-2.9-5.9c0,0,4.3-3.2,10.4-3.2    c7,0,11.1,3.8,11.1,10.1v15.2h-7.6v-1.5c0-0.8,0.1-1.5,0.1-1.5h-0.1c0,0-1.8,3.6-7,3.6c-4.6,0-8.4-3.1-8.4-8    C134.5,29.1,145,28.3,148.8,28.3z M145.2,38c2.2,0,4.1-2.4,4.1-4.4v-0.5h-0.8c-2.6,0-5.7,0.8-5.7,2.8    C142.8,37.1,143.5,38,145.2,38z"/>
	</g>
</g>
<path class="st2" d="M166.3,2c-4.1,0-7.3,3.3-7.3,7.6c0,4.4,3.1,7.9,7.4,7.9c3.6,0,5.7-2.3,5.7-2.3l0.7,0.7c0,0-2.3,2.6-6.4,2.6  c-4.9,0-8.5-4-8.5-8.8s3.6-8.6,8.4-8.6c4,0,6,2.1,6,2.1L171.7,4C171.7,3.9,169.7,2,166.3,2L166.3,2z M176.7,18.2V1.3h1v16.9  L176.7,18.2L176.7,18.2z M192.7,17.2v1H183V1.3h9.2v1H184v6.9h6.7v1H184v7.1L192.7,17.2L192.7,17.2z"/>
</svg>